<mxfile host="Electron" modified="2024-05-22T06:41:10.935Z" agent="Mozilla/5.0 (Windows NT 10.0; Win64; x64) AppleWebKit/537.36 (KHTML, like Gecko) draw.io/23.1.5 Chrome/120.0.6099.109 Electron/28.1.0 Safari/537.36" etag="yUoL9QWF0rFTUh_exhZa" version="23.1.5" type="device">
  <diagram name="Page-1" id="VFL24LqBvpKJ4Wmexm2Y">
    <mxGraphModel dx="333" dy="194" grid="1" gridSize="10" guides="1" tooltips="1" connect="1" arrows="1" fold="1" page="1" pageScale="1" pageWidth="850" pageHeight="1100" math="0" shadow="0">
      <root>
        <mxCell id="0" />
        <mxCell id="1" parent="0" />
        <mxCell id="I80EE8Toia6QcI7aTByl-48" style="edgeStyle=orthogonalEdgeStyle;rounded=0;orthogonalLoop=1;jettySize=auto;html=1;entryX=0;entryY=0.5;entryDx=0;entryDy=0;fillColor=#dae8fc;strokeColor=#6c8ebf;" edge="1" parent="1" source="I80EE8Toia6QcI7aTByl-2" target="I80EE8Toia6QcI7aTByl-14">
          <mxGeometry relative="1" as="geometry" />
        </mxCell>
        <mxCell id="I80EE8Toia6QcI7aTByl-57" value="&lt;font style=&quot;font-size: 8px;&quot;&gt;call to slow down&lt;/font&gt;" style="edgeLabel;html=1;align=center;verticalAlign=middle;resizable=0;points=[];" vertex="1" connectable="0" parent="I80EE8Toia6QcI7aTByl-48">
          <mxGeometry x="-0.1903" y="2" relative="1" as="geometry">
            <mxPoint as="offset" />
          </mxGeometry>
        </mxCell>
        <mxCell id="I80EE8Toia6QcI7aTByl-2" value="Movement" style="shape=hexagon;perimeter=hexagonPerimeter2;whiteSpace=wrap;html=1;fixedSize=1;fillColor=#f5f5f5;fontColor=#333333;strokeColor=#666666;size=10;" vertex="1" parent="1">
          <mxGeometry x="160" y="535" width="120" height="40" as="geometry" />
        </mxCell>
        <mxCell id="I80EE8Toia6QcI7aTByl-93" style="edgeStyle=orthogonalEdgeStyle;rounded=0;orthogonalLoop=1;jettySize=auto;html=1;entryX=0;entryY=0.5;entryDx=0;entryDy=0;fillColor=#dae8fc;strokeColor=#6c8ebf;" edge="1" parent="1" source="I80EE8Toia6QcI7aTByl-6" target="I80EE8Toia6QcI7aTByl-92">
          <mxGeometry relative="1" as="geometry" />
        </mxCell>
        <mxCell id="I80EE8Toia6QcI7aTByl-219" style="edgeStyle=orthogonalEdgeStyle;rounded=0;orthogonalLoop=1;jettySize=auto;html=1;fontFamily=Helvetica;fontSize=12;fontColor=#333333;startArrow=classic;startFill=1;endArrow=none;endFill=0;fillColor=#e1d5e7;strokeColor=#9673a6;" edge="1" parent="1" source="I80EE8Toia6QcI7aTByl-6">
          <mxGeometry relative="1" as="geometry">
            <mxPoint x="100" y="610" as="targetPoint" />
            <Array as="points">
              <mxPoint x="130" y="666" />
              <mxPoint x="130" y="610" />
            </Array>
          </mxGeometry>
        </mxCell>
        <mxCell id="I80EE8Toia6QcI7aTByl-6" value="Player Logic Handler" style="shape=hexagon;perimeter=hexagonPerimeter2;whiteSpace=wrap;html=1;fixedSize=1;fillColor=#f5f5f5;fontColor=#333333;strokeColor=#666666;size=10;" vertex="1" parent="1">
          <mxGeometry x="160" y="646" width="120" height="40" as="geometry" />
        </mxCell>
        <mxCell id="I80EE8Toia6QcI7aTByl-9" value="Game Manager" style="shape=hexagon;perimeter=hexagonPerimeter2;whiteSpace=wrap;html=1;fixedSize=1;fillColor=#f5f5f5;fontColor=#333333;strokeColor=#666666;size=10;" vertex="1" parent="1">
          <mxGeometry x="550" y="540" width="120" height="40" as="geometry" />
        </mxCell>
        <mxCell id="I80EE8Toia6QcI7aTByl-8" value="Respawn()" style="rounded=1;whiteSpace=wrap;html=1;fillColor=#f5f5f5;strokeColor=#666666;fontColor=#333333;arcSize=50;" vertex="1" parent="1">
          <mxGeometry x="400" y="686" width="90" height="30" as="geometry" />
        </mxCell>
        <mxCell id="I80EE8Toia6QcI7aTByl-13" value="Game Manager" style="shape=cube;whiteSpace=wrap;html=1;boundedLbl=1;backgroundOutline=1;darkOpacity=0.05;darkOpacity2=0.1;fillColor=#f5f5f5;fontColor=#333333;strokeColor=#666666;" vertex="1" parent="1">
          <mxGeometry x="550" y="440" width="120" height="80" as="geometry" />
        </mxCell>
        <mxCell id="I80EE8Toia6QcI7aTByl-14" value="Slow Down()" style="rounded=1;whiteSpace=wrap;html=1;fillColor=#f5f5f5;strokeColor=#666666;fontColor=#333333;arcSize=50;" vertex="1" parent="1">
          <mxGeometry x="400" y="540" width="90" height="30" as="geometry" />
        </mxCell>
        <mxCell id="I80EE8Toia6QcI7aTByl-16" value="Pause Menu" style="shape=cube;whiteSpace=wrap;html=1;boundedLbl=1;backgroundOutline=1;darkOpacity=0.05;darkOpacity2=0.1;fillColor=#f5f5f5;fontColor=#333333;strokeColor=#666666;" vertex="1" parent="1">
          <mxGeometry x="230" y="760" width="120" height="80" as="geometry" />
        </mxCell>
        <mxCell id="I80EE8Toia6QcI7aTByl-103" style="edgeStyle=orthogonalEdgeStyle;rounded=0;orthogonalLoop=1;jettySize=auto;html=1;exitX=1;exitY=0.25;exitDx=0;exitDy=0;entryX=0;entryY=0.5;entryDx=0;entryDy=0;fillColor=#dae8fc;strokeColor=#6c8ebf;" edge="1" parent="1" source="I80EE8Toia6QcI7aTByl-17" target="I80EE8Toia6QcI7aTByl-18">
          <mxGeometry relative="1" as="geometry" />
        </mxCell>
        <mxCell id="I80EE8Toia6QcI7aTByl-104" style="edgeStyle=orthogonalEdgeStyle;rounded=0;orthogonalLoop=1;jettySize=auto;html=1;exitX=1;exitY=0.75;exitDx=0;exitDy=0;entryX=0;entryY=0.5;entryDx=0;entryDy=0;fillColor=#e1d5e7;strokeColor=#9673a6;" edge="1" parent="1" source="I80EE8Toia6QcI7aTByl-17" target="I80EE8Toia6QcI7aTByl-19">
          <mxGeometry relative="1" as="geometry" />
        </mxCell>
        <mxCell id="I80EE8Toia6QcI7aTByl-17" value="Pause Menu Handler" style="shape=hexagon;perimeter=hexagonPerimeter2;whiteSpace=wrap;html=1;fixedSize=1;fillColor=#f5f5f5;fontColor=#333333;strokeColor=#666666;size=10;" vertex="1" parent="1">
          <mxGeometry x="230" y="860" width="120" height="40" as="geometry" />
        </mxCell>
        <mxCell id="I80EE8Toia6QcI7aTByl-18" value="Toggle Pause()" style="rounded=1;whiteSpace=wrap;html=1;fillColor=#f5f5f5;strokeColor=#666666;fontColor=#333333;arcSize=50;" vertex="1" parent="1">
          <mxGeometry x="410" y="847.5" width="90" height="30" as="geometry" />
        </mxCell>
        <mxCell id="I80EE8Toia6QcI7aTByl-19" value="Restart()" style="rounded=1;whiteSpace=wrap;html=1;fillColor=#f5f5f5;strokeColor=#666666;fontColor=#333333;arcSize=50;" vertex="1" parent="1">
          <mxGeometry x="410" y="882.5" width="90" height="30" as="geometry" />
        </mxCell>
        <mxCell id="I80EE8Toia6QcI7aTByl-20" value="Predator" style="shape=cube;whiteSpace=wrap;html=1;boundedLbl=1;backgroundOutline=1;darkOpacity=0.05;darkOpacity2=0.1;fillColor=#f5f5f5;fontColor=#333333;strokeColor=#666666;" vertex="1" parent="1">
          <mxGeometry x="700" y="700" width="120" height="80" as="geometry" />
        </mxCell>
        <mxCell id="I80EE8Toia6QcI7aTByl-21" value="Predator System" style="shape=hexagon;perimeter=hexagonPerimeter2;whiteSpace=wrap;html=1;fixedSize=1;fillColor=#f5f5f5;fontColor=#333333;strokeColor=#666666;size=10;" vertex="1" parent="1">
          <mxGeometry x="700" y="800" width="120" height="40" as="geometry" />
        </mxCell>
        <mxCell id="I80EE8Toia6QcI7aTByl-24" value="Game Object" style="shape=cube;whiteSpace=wrap;html=1;boundedLbl=1;backgroundOutline=1;darkOpacity=0.05;darkOpacity2=0.1;fillColor=#f5f5f5;fontColor=#333333;strokeColor=#666666;" vertex="1" parent="1">
          <mxGeometry x="170" y="90" width="120" height="80" as="geometry" />
        </mxCell>
        <mxCell id="I80EE8Toia6QcI7aTByl-25" value="Script" style="shape=hexagon;perimeter=hexagonPerimeter2;whiteSpace=wrap;html=1;fixedSize=1;fillColor=#f5f5f5;fontColor=#333333;strokeColor=#666666;size=10;" vertex="1" parent="1">
          <mxGeometry x="300" y="110" width="120" height="40" as="geometry" />
        </mxCell>
        <mxCell id="I80EE8Toia6QcI7aTByl-26" value="Function" style="rounded=1;whiteSpace=wrap;html=1;fillColor=#f5f5f5;strokeColor=#666666;fontColor=#333333;arcSize=50;" vertex="1" parent="1">
          <mxGeometry x="430" y="115" width="90" height="30" as="geometry" />
        </mxCell>
        <mxCell id="I80EE8Toia6QcI7aTByl-47" style="edgeStyle=orthogonalEdgeStyle;rounded=0;orthogonalLoop=1;jettySize=auto;html=1;exitX=0.5;exitY=0;exitDx=0;exitDy=0;entryX=0.5;entryY=1;entryDx=0;entryDy=0;fillColor=#dae8fc;strokeColor=#6c8ebf;" edge="1" parent="1" source="I80EE8Toia6QcI7aTByl-29" target="I80EE8Toia6QcI7aTByl-2">
          <mxGeometry relative="1" as="geometry">
            <Array as="points">
              <mxPoint x="445" y="620" />
              <mxPoint x="220" y="620" />
            </Array>
          </mxGeometry>
        </mxCell>
        <mxCell id="I80EE8Toia6QcI7aTByl-54" value="&lt;font style=&quot;font-size: 8px;&quot;&gt;call to slow down&lt;/font&gt;" style="edgeLabel;html=1;align=center;verticalAlign=middle;resizable=0;points=[];" vertex="1" connectable="0" parent="I80EE8Toia6QcI7aTByl-47">
          <mxGeometry x="0.1113" y="-1" relative="1" as="geometry">
            <mxPoint x="6" as="offset" />
          </mxGeometry>
        </mxCell>
        <mxCell id="I80EE8Toia6QcI7aTByl-29" value="Slow Down()" style="rounded=1;whiteSpace=wrap;html=1;fillColor=#f5f5f5;strokeColor=#666666;fontColor=#333333;arcSize=50;" vertex="1" parent="1">
          <mxGeometry x="400" y="651" width="90" height="30" as="geometry" />
        </mxCell>
        <mxCell id="I80EE8Toia6QcI7aTByl-30" value="Reset()" style="rounded=1;whiteSpace=wrap;html=1;fillColor=#f5f5f5;strokeColor=#666666;fontColor=#333333;arcSize=50;" vertex="1" parent="1">
          <mxGeometry x="690" y="545" width="90" height="30" as="geometry" />
        </mxCell>
        <mxCell id="I80EE8Toia6QcI7aTByl-40" style="edgeStyle=orthogonalEdgeStyle;rounded=0;orthogonalLoop=1;jettySize=auto;html=1;exitX=0.5;exitY=1;exitDx=0;exitDy=0;" edge="1" parent="1" source="I80EE8Toia6QcI7aTByl-29" target="I80EE8Toia6QcI7aTByl-29">
          <mxGeometry relative="1" as="geometry" />
        </mxCell>
        <mxCell id="I80EE8Toia6QcI7aTByl-94" style="edgeStyle=orthogonalEdgeStyle;rounded=0;orthogonalLoop=1;jettySize=auto;html=1;entryX=0;entryY=0.5;entryDx=0;entryDy=0;fillColor=#d5e8d4;strokeColor=#82b366;" edge="1" parent="1" source="I80EE8Toia6QcI7aTByl-92" target="I80EE8Toia6QcI7aTByl-8">
          <mxGeometry relative="1" as="geometry">
            <Array as="points">
              <mxPoint x="345" y="701" />
            </Array>
          </mxGeometry>
        </mxCell>
        <mxCell id="I80EE8Toia6QcI7aTByl-95" style="edgeStyle=orthogonalEdgeStyle;rounded=0;orthogonalLoop=1;jettySize=auto;html=1;entryX=0;entryY=0.5;entryDx=0;entryDy=0;fillColor=#f8cecc;strokeColor=#b85450;" edge="1" parent="1" source="I80EE8Toia6QcI7aTByl-92" target="I80EE8Toia6QcI7aTByl-29">
          <mxGeometry relative="1" as="geometry" />
        </mxCell>
        <mxCell id="I80EE8Toia6QcI7aTByl-92" value="&lt;font style=&quot;font-size: 9px;&quot;&gt;is lethal?&lt;/font&gt;" style="rhombus;whiteSpace=wrap;html=1;fillColor=#f5f5f5;fontColor=#333333;strokeColor=#666666;" vertex="1" parent="1">
          <mxGeometry x="310" y="646" width="70" height="40" as="geometry" />
        </mxCell>
        <mxCell id="I80EE8Toia6QcI7aTByl-101" value="&lt;font style=&quot;font-size: 9px;&quot;&gt;condition&lt;/font&gt;" style="rhombus;whiteSpace=wrap;html=1;fillColor=#f5f5f5;fontColor=#333333;strokeColor=#666666;" vertex="1" parent="1">
          <mxGeometry x="530" y="110" width="70" height="40" as="geometry" />
        </mxCell>
        <mxCell id="I80EE8Toia6QcI7aTByl-102" value="Player" style="shape=cube;whiteSpace=wrap;html=1;boundedLbl=1;backgroundOutline=1;darkOpacity=0.05;darkOpacity2=0.1;fillColor=#f5f5f5;fontColor=#333333;strokeColor=#666666;" vertex="1" parent="1">
          <mxGeometry x="170" y="430" width="120" height="80" as="geometry" />
        </mxCell>
        <mxCell id="I80EE8Toia6QcI7aTByl-136" value="&lt;font style=&quot;font-size: 12px;&quot;&gt;Pause&lt;/font&gt;" style="whiteSpace=wrap;html=1;shape=mxgraph.basic.oval_callout;fillColor=#e3c800;fontColor=#000000;strokeColor=#B09500;align=center;verticalAlign=middle;fontFamily=Helvetica;fontSize=12;spacingTop=0;spacingBottom=7;spacingRight=12;labelBorderColor=none;labelBackgroundColor=none;" vertex="1" parent="1">
          <mxGeometry x="450" y="792" width="70" height="48" as="geometry" />
        </mxCell>
        <mxCell id="I80EE8Toia6QcI7aTByl-137" value="" style="verticalLabelPosition=bottom;verticalAlign=top;html=1;shape=mxgraph.basic.flash;fillColor=#f0a30a;strokeColor=#BD7000;fontColor=#000000;align=center;fontFamily=Helvetica;fontSize=12;" vertex="1" parent="1">
          <mxGeometry x="500" y="782" width="15" height="30" as="geometry" />
        </mxCell>
        <mxCell id="I80EE8Toia6QcI7aTByl-168" value="" style="group;strokeColor=none;align=center;verticalAlign=middle;fontFamily=Helvetica;fontSize=12;fontColor=#333333;fillColor=none;" vertex="1" connectable="0" parent="1">
          <mxGeometry x="280" y="190" width="70" height="58" as="geometry" />
        </mxCell>
        <mxCell id="I80EE8Toia6QcI7aTByl-169" value="&lt;font style=&quot;font-size: 8px;&quot;&gt;Call event&lt;/font&gt;" style="whiteSpace=wrap;html=1;shape=mxgraph.basic.oval_callout;fillColor=#e3c800;fontColor=#000000;strokeColor=#B09500;align=center;verticalAlign=middle;fontFamily=Helvetica;fontSize=12;spacingTop=0;spacingBottom=7;spacingRight=12;labelBorderColor=none;labelBackgroundColor=none;" vertex="1" parent="I80EE8Toia6QcI7aTByl-168">
          <mxGeometry y="10" width="70" height="48" as="geometry" />
        </mxCell>
        <mxCell id="I80EE8Toia6QcI7aTByl-170" value="" style="verticalLabelPosition=bottom;verticalAlign=top;html=1;shape=mxgraph.basic.flash;fillColor=#f0a30a;strokeColor=#BD7000;fontColor=#000000;align=center;fontFamily=Helvetica;fontSize=12;" vertex="1" parent="I80EE8Toia6QcI7aTByl-168">
          <mxGeometry x="50" width="15" height="30" as="geometry" />
        </mxCell>
        <mxCell id="I80EE8Toia6QcI7aTByl-171" value="" style="group;strokeColor=none;align=center;verticalAlign=middle;fontFamily=Helvetica;fontSize=12;fontColor=#333333;fillColor=none;" vertex="1" connectable="0" parent="1">
          <mxGeometry x="200" y="194.0000000000001" width="40" height="50" as="geometry" />
        </mxCell>
        <mxCell id="I80EE8Toia6QcI7aTByl-172" value="&lt;p style=&quot;line-height: 70%;&quot;&gt;&lt;font style=&quot;font-size: 8px;&quot;&gt;Hear Event&lt;/font&gt;&lt;/p&gt;" style="shape=offPageConnector;whiteSpace=wrap;html=1;size=0.3333333333333333;fillColor=#e3c800;fontColor=#000000;strokeColor=#B09500;align=center;verticalAlign=middle;fontFamily=Helvetica;fontSize=12;spacingBottom=4;" vertex="1" parent="I80EE8Toia6QcI7aTByl-171">
          <mxGeometry y="10" width="34" height="40" as="geometry" />
        </mxCell>
        <mxCell id="I80EE8Toia6QcI7aTByl-173" value="" style="verticalLabelPosition=bottom;verticalAlign=top;html=1;shape=mxgraph.basic.flash;fillColor=#f0a30a;strokeColor=#BD7000;fontColor=#000000;align=center;fontFamily=Helvetica;fontSize=12;" vertex="1" parent="I80EE8Toia6QcI7aTByl-171">
          <mxGeometry x="30" width="10" height="20" as="geometry" />
        </mxCell>
        <mxCell id="I80EE8Toia6QcI7aTByl-185" value="" style="group;strokeColor=none;align=center;verticalAlign=middle;fontFamily=Helvetica;fontSize=12;fontColor=#333333;fillColor=none;" vertex="1" connectable="0" parent="1">
          <mxGeometry x="500" y="792" width="70" height="58" as="geometry" />
        </mxCell>
        <mxCell id="I80EE8Toia6QcI7aTByl-186" value="&lt;font style=&quot;font-size: 10px;&quot;&gt;Resume&lt;/font&gt;" style="whiteSpace=wrap;html=1;shape=mxgraph.basic.oval_callout;fillColor=#e3c800;fontColor=#000000;strokeColor=#B09500;align=center;verticalAlign=middle;fontFamily=Helvetica;fontSize=12;spacingTop=0;spacingBottom=7;spacingRight=12;labelBorderColor=none;labelBackgroundColor=none;" vertex="1" parent="I80EE8Toia6QcI7aTByl-185">
          <mxGeometry y="10" width="70" height="48" as="geometry" />
        </mxCell>
        <mxCell id="I80EE8Toia6QcI7aTByl-187" value="" style="verticalLabelPosition=bottom;verticalAlign=top;html=1;shape=mxgraph.basic.flash;fillColor=#f0a30a;strokeColor=#BD7000;fontColor=#000000;align=center;fontFamily=Helvetica;fontSize=12;" vertex="1" parent="I80EE8Toia6QcI7aTByl-185">
          <mxGeometry x="50" width="15" height="30" as="geometry" />
        </mxCell>
        <mxCell id="I80EE8Toia6QcI7aTByl-204" value="" style="group;strokeColor=none;align=center;verticalAlign=middle;fontFamily=Helvetica;fontSize=12;fontColor=#333333;fillColor=none;" vertex="1" connectable="0" parent="1">
          <mxGeometry x="10" y="550.0000000000001" width="40" height="50" as="geometry" />
        </mxCell>
        <mxCell id="I80EE8Toia6QcI7aTByl-215" style="edgeStyle=orthogonalEdgeStyle;rounded=0;orthogonalLoop=1;jettySize=auto;html=1;fontFamily=Helvetica;fontSize=12;fontColor=#333333;endArrow=none;endFill=0;fillColor=#f8cecc;strokeColor=#b85450;" edge="1" parent="I80EE8Toia6QcI7aTByl-204" source="I80EE8Toia6QcI7aTByl-205">
          <mxGeometry relative="1" as="geometry">
            <mxPoint x="90" y="59.999999999999886" as="targetPoint" />
          </mxGeometry>
        </mxCell>
        <mxCell id="I80EE8Toia6QcI7aTByl-205" value="&lt;p style=&quot;line-height: 70%;&quot;&gt;&lt;font style=&quot;font-size: 8px;&quot;&gt;Pause&lt;/font&gt;&lt;/p&gt;" style="shape=offPageConnector;whiteSpace=wrap;html=1;size=0.3333333333333333;fillColor=#e3c800;fontColor=#000000;strokeColor=#B09500;align=center;verticalAlign=middle;fontFamily=Helvetica;fontSize=12;spacingBottom=4;" vertex="1" parent="I80EE8Toia6QcI7aTByl-204">
          <mxGeometry y="10" width="34" height="40" as="geometry" />
        </mxCell>
        <mxCell id="I80EE8Toia6QcI7aTByl-206" value="" style="verticalLabelPosition=bottom;verticalAlign=top;html=1;shape=mxgraph.basic.flash;fillColor=#f0a30a;strokeColor=#BD7000;fontColor=#000000;align=center;fontFamily=Helvetica;fontSize=12;" vertex="1" parent="I80EE8Toia6QcI7aTByl-204">
          <mxGeometry x="30" width="10" height="20" as="geometry" />
        </mxCell>
        <mxCell id="I80EE8Toia6QcI7aTByl-207" value="" style="group;strokeColor=none;align=center;verticalAlign=middle;fontFamily=Helvetica;fontSize=12;fontColor=#333333;fillColor=none;" vertex="1" connectable="0" parent="1">
          <mxGeometry x="10" y="610.0000000000001" width="40" height="50" as="geometry" />
        </mxCell>
        <mxCell id="I80EE8Toia6QcI7aTByl-216" style="edgeStyle=orthogonalEdgeStyle;rounded=0;orthogonalLoop=1;jettySize=auto;html=1;fontFamily=Helvetica;fontSize=12;fontColor=#333333;endArrow=none;endFill=0;fillColor=#dae8fc;strokeColor=#6c8ebf;" edge="1" parent="I80EE8Toia6QcI7aTByl-207" source="I80EE8Toia6QcI7aTByl-208">
          <mxGeometry relative="1" as="geometry">
            <mxPoint x="90" y="-1.1368683772161603e-13" as="targetPoint" />
          </mxGeometry>
        </mxCell>
        <mxCell id="I80EE8Toia6QcI7aTByl-208" value="&lt;p style=&quot;line-height: 70%;&quot;&gt;&lt;font style=&quot;font-size: 8px;&quot;&gt;Unpause&lt;/font&gt;&lt;/p&gt;" style="shape=offPageConnector;whiteSpace=wrap;html=1;size=0.3333333333333333;fillColor=#e3c800;fontColor=#000000;strokeColor=#B09500;align=center;verticalAlign=middle;fontFamily=Helvetica;fontSize=12;spacingBottom=4;" vertex="1" parent="I80EE8Toia6QcI7aTByl-207">
          <mxGeometry y="10" width="34" height="40" as="geometry" />
        </mxCell>
        <mxCell id="I80EE8Toia6QcI7aTByl-209" value="" style="verticalLabelPosition=bottom;verticalAlign=top;html=1;shape=mxgraph.basic.flash;fillColor=#f0a30a;strokeColor=#BD7000;fontColor=#000000;align=center;fontFamily=Helvetica;fontSize=12;" vertex="1" parent="I80EE8Toia6QcI7aTByl-207">
          <mxGeometry x="30" width="10" height="20" as="geometry" />
        </mxCell>
        <mxCell id="I80EE8Toia6QcI7aTByl-220" style="edgeStyle=orthogonalEdgeStyle;rounded=0;orthogonalLoop=1;jettySize=auto;html=1;fontFamily=Helvetica;fontSize=12;fontColor=#333333;startArrow=classic;startFill=1;endArrow=none;endFill=0;exitX=0;exitY=0.5;exitDx=0;exitDy=0;fillColor=#e1d5e7;strokeColor=#9673a6;" edge="1" parent="1" source="I80EE8Toia6QcI7aTByl-2">
          <mxGeometry relative="1" as="geometry">
            <mxPoint x="100" y="610" as="targetPoint" />
            <mxPoint x="160" y="580" as="sourcePoint" />
            <Array as="points">
              <mxPoint x="130" y="555" />
              <mxPoint x="130" y="610" />
            </Array>
          </mxGeometry>
        </mxCell>
      </root>
    </mxGraphModel>
  </diagram>
</mxfile>
